<svg id="visual" viewBox="0 0 900 600" width="900" height="600" xmlns="http://www.w3.org/2000/svg" xmlns:xlink="http://www.w3.org/1999/xlink" version="1.1"><g stroke-width="5" stroke-linejoin="bevel"><path d="M443 296L414 309L438 322.9Z" fill="#046123" stroke="#212121"></path><path d="M414 309L416 322.9L438 322.9Z" fill="#056624" stroke="#212121"></path><path d="M466 382.7L473 340.9L438 322.9Z" fill="#0b7228" stroke="#212121"></path><path d="M438 322.9L473 340.9L443 296Z" fill="#035d21" stroke="#212121"></path><path d="M512 289L454 250.1L443 296Z" fill="#056624" stroke="#212121"></path><path d="M443 296L388 234.1L414 309Z" fill="#025920" stroke="#212121"></path><path d="M363 252.1L369 320L414 309Z" fill="#14842e" stroke="#212121"></path><path d="M414 309L369 320L416 322.9Z" fill="#046123" stroke="#212121"></path><path d="M416 322.9L415 384.7L438 322.9Z" fill="#0d772a" stroke="#212121"></path><path d="M369 320L379 349.9L416 322.9Z" fill="#12802d" stroke="#212121"></path><path d="M379 349.9L415 384.7L416 322.9Z" fill="#076a26" stroke="#212121"></path><path d="M466 382.7L488 362.7L473 340.9Z" fill="#046123" stroke="#212121"></path><path d="M473 340.9L512 289L443 296Z" fill="#096e27" stroke="#212121"></path><path d="M415 384.7L466 382.7L438 322.9Z" fill="#0b7228" stroke="#212121"></path><path d="M528 318L512 289L473 340.9Z" fill="#076a26" stroke="#212121"></path><path d="M454 250.1L388 234.1L443 296Z" fill="#0d772a" stroke="#212121"></path><path d="M388 234.1L363 252.1L414 309Z" fill="#0f7b2b" stroke="#212121"></path><path d="M512 289L513 275.1L454 250.1Z" fill="#025920" stroke="#212121"></path><path d="M452 193.3L385 230.3L388 234.1Z" fill="#12802d" stroke="#212121"></path><path d="M388 234.1L385 230.3L363 252.1Z" fill="#076a26" stroke="#212121"></path><path d="M488 362.7L528 318L473 340.9Z" fill="#025920" stroke="#212121"></path><path d="M512 289L591 278.1L513 275.1Z" fill="#025920" stroke="#212121"></path><path d="M323 290L326 320.9L369 320Z" fill="#096e27" stroke="#212121"></path><path d="M369 320L326 320.9L379 349.9Z" fill="#046123" stroke="#212121"></path><path d="M379 349.9L347 379.7L415 384.7Z" fill="#096e27" stroke="#212121"></path><path d="M513 275.1L489 215.3L454 250.1Z" fill="#0d772a" stroke="#212121"></path><path d="M454 250.1L452 193.3L388 234.1Z" fill="#056624" stroke="#212121"></path><path d="M300 279.1L323 290L363 252.1Z" fill="#12802d" stroke="#212121"></path><path d="M363 252.1L323 290L369 320Z" fill="#046123" stroke="#212121"></path><path d="M326 369.7L347 379.7L379 349.9Z" fill="#0b7228" stroke="#212121"></path><path d="M538 386.7L536 356.9L488 362.7Z" fill="#046123" stroke="#212121"></path><path d="M488 362.7L536 356.9L528 318Z" fill="#12802d" stroke="#212121"></path><path d="M489 215.3L452 193.3L454 250.1Z" fill="#056624" stroke="#212121"></path><path d="M290 333.9L326 369.7L326 320.9Z" fill="#035d21" stroke="#212121"></path><path d="M326 320.9L326 369.7L379 349.9Z" fill="#0f7b2b" stroke="#212121"></path><path d="M415 384.7L459 433.6L466 382.7Z" fill="#056624" stroke="#212121"></path><path d="M466 382.7L538 386.7L488 362.7Z" fill="#0f7b2b" stroke="#212121"></path><path d="M392 440.6L459 433.6L415 384.7Z" fill="#035d21" stroke="#212121"></path><path d="M362 427.6L415 384.7L347 379.7Z" fill="#14842e" stroke="#212121"></path><path d="M505 445.6L538 386.7L466 382.7Z" fill="#14842e" stroke="#212121"></path><path d="M303 224.3L300 279.1L363 252.1Z" fill="#14842e" stroke="#212121"></path><path d="M323 290L290 333.9L326 320.9Z" fill="#046123" stroke="#212121"></path><path d="M536 356.9L563 331.9L528 318Z" fill="#0b7228" stroke="#212121"></path><path d="M591 278.1L561 243.1L513 275.1Z" fill="#12802d" stroke="#212121"></path><path d="M557 197.3L509 187.4L489 215.3Z" fill="#076a26" stroke="#212121"></path><path d="M583 390.7L563 331.9L536 356.9Z" fill="#025920" stroke="#212121"></path><path d="M368 168.4L345 203.3L385 230.3Z" fill="#14842e" stroke="#212121"></path><path d="M385 230.3L345 203.3L363 252.1Z" fill="#14842e" stroke="#212121"></path><path d="M294 432.6L362 427.6L347 379.7Z" fill="#0d772a" stroke="#212121"></path><path d="M362 427.6L392 440.6L415 384.7Z" fill="#025920" stroke="#212121"></path><path d="M303 224.3L291 277L300 279.1Z" fill="#096e27" stroke="#212121"></path><path d="M300 279.1L290 333.9L323 290Z" fill="#056624" stroke="#212121"></path><path d="M291 277L290 333.9L300 279.1Z" fill="#0b7228" stroke="#212121"></path><path d="M326 369.7L294 432.6L347 379.7Z" fill="#076a26" stroke="#212121"></path><path d="M561 243.1L489 215.3L513 275.1Z" fill="#096e27" stroke="#212121"></path><path d="M489 215.3L509 187.4L452 193.3Z" fill="#0b7228" stroke="#212121"></path><path d="M431 153.4L368 168.4L385 230.3Z" fill="#076a26" stroke="#212121"></path><path d="M591 278.1L512 289L528 318Z" fill="#056624" stroke="#212121"></path><path d="M362 427.6L391 450.4L392 440.6Z" fill="#025920" stroke="#212121"></path><path d="M392 440.6L391 450.4L459 433.6Z" fill="#025920" stroke="#212121"></path><path d="M345 203.3L303 224.3L363 252.1Z" fill="#12802d" stroke="#212121"></path><path d="M431 153.4L385 230.3L452 193.3Z" fill="#035d21" stroke="#212121"></path><path d="M345 203.3L291 176.4L303 224.3Z" fill="#0f7b2b" stroke="#212121"></path><path d="M583 390.7L583 321L563 331.9Z" fill="#096e27" stroke="#212121"></path><path d="M563 331.9L583 321L528 318Z" fill="#14842e" stroke="#212121"></path><path d="M485 123.6L431 153.4L452 193.3Z" fill="#14842e" stroke="#212121"></path><path d="M499 489.4L505 445.6L459 433.6Z" fill="#025920" stroke="#212121"></path><path d="M459 433.6L505 445.6L466 382.7Z" fill="#076a26" stroke="#212121"></path><path d="M538 386.7L583 390.7L536 356.9Z" fill="#076a26" stroke="#212121"></path><path d="M583 321L591 278.1L528 318Z" fill="#076a26" stroke="#212121"></path><path d="M431 153.4L382 150.4L368 168.4Z" fill="#0b7228" stroke="#212121"></path><path d="M368 168.4L323 162.4L345 203.3Z" fill="#035d21" stroke="#212121"></path><path d="M431 153.4L404 142.6L382 150.4Z" fill="#12802d" stroke="#212121"></path><path d="M561 243.1L557 197.3L489 215.3Z" fill="#096e27" stroke="#212121"></path><path d="M509 187.4L485 123.6L452 193.3Z" fill="#076a26" stroke="#212121"></path><path d="M431 153.4L465 116.6L404 142.6Z" fill="#076a26" stroke="#212121"></path><path d="M565 195.3L557 197.3L561 243.1Z" fill="#0d772a" stroke="#212121"></path><path d="M362 427.6L378 469.4L391 450.4Z" fill="#12802d" stroke="#212121"></path><path d="M391 450.4L437 483.4L459 433.6Z" fill="#025920" stroke="#212121"></path><path d="M318 468.4L378 469.4L362 427.6Z" fill="#046123" stroke="#212121"></path><path d="M580 420.6L583 390.7L538 386.7Z" fill="#035d21" stroke="#212121"></path><path d="M649 315L637 272.1L591 278.1Z" fill="#046123" stroke="#212121"></path><path d="M557 197.3L530 164.4L509 187.4Z" fill="#14842e" stroke="#212121"></path><path d="M576 186.4L565 195.3L612 211.3Z" fill="#076a26" stroke="#212121"></path><path d="M557 197.3L565 195.3L530 164.4Z" fill="#035d21" stroke="#212121"></path><path d="M378 469.4L437 483.4L391 450.4Z" fill="#0f7b2b" stroke="#212121"></path><path d="M529 476.4L542 449.6L505 445.6Z" fill="#056624" stroke="#212121"></path><path d="M505 445.6L542 449.6L538 386.7Z" fill="#056624" stroke="#212121"></path><path d="M303 224.3L257 259.1L291 277Z" fill="#025920" stroke="#212121"></path><path d="M291 277L228 300L290 333.9Z" fill="#025920" stroke="#212121"></path><path d="M258 202.3L257 259.1L303 224.3Z" fill="#0f7b2b" stroke="#212121"></path><path d="M311 143.6L323 162.4L358 111.6Z" fill="#056624" stroke="#212121"></path><path d="M358 111.6L323 162.4L368 168.4Z" fill="#0d772a" stroke="#212121"></path><path d="M259 399.7L326 369.7L290 333.9Z" fill="#046123" stroke="#212121"></path><path d="M259 399.7L294 432.6L326 369.7Z" fill="#0b7228" stroke="#212121"></path><path d="M542 449.6L580 420.6L538 386.7Z" fill="#14842e" stroke="#212121"></path><path d="M612 211.3L565 195.3L561 243.1Z" fill="#14842e" stroke="#212121"></path><path d="M565 195.3L576 186.4L530 164.4Z" fill="#035d21" stroke="#212121"></path><path d="M323 162.4L291 176.4L345 203.3Z" fill="#096e27" stroke="#212121"></path><path d="M490 106.7L485 123.6L557 122.6Z" fill="#14842e" stroke="#212121"></path><path d="M530 164.4L485 123.6L509 187.4Z" fill="#076a26" stroke="#212121"></path><path d="M485 123.6L465 116.6L431 153.4Z" fill="#0f7b2b" stroke="#212121"></path><path d="M358 111.6L368 168.4L382 150.4Z" fill="#0d772a" stroke="#212121"></path><path d="M437 483.4L499 489.4L459 433.6Z" fill="#046123" stroke="#212121"></path><path d="M604 474.4L609 433.6L580 420.6Z" fill="#025920" stroke="#212121"></path><path d="M209 370.7L259 399.7L290 333.9Z" fill="#0f7b2b" stroke="#212121"></path><path d="M499 489.4L529 476.4L505 445.6Z" fill="#056624" stroke="#212121"></path><path d="M281 465.4L318 468.4L294 432.6Z" fill="#035d21" stroke="#212121"></path><path d="M294 432.6L318 468.4L362 427.6Z" fill="#0b7228" stroke="#212121"></path><path d="M413 533.3L440 533.3L437 483.4Z" fill="#025920" stroke="#212121"></path><path d="M259 399.7L266 424.6L294 432.6Z" fill="#035d21" stroke="#212121"></path><path d="M291 176.4L258 202.3L303 224.3Z" fill="#14842e" stroke="#212121"></path><path d="M229 249.1L228 300L257 259.1Z" fill="#14842e" stroke="#212121"></path><path d="M257 259.1L228 300L291 277Z" fill="#076a26" stroke="#212121"></path><path d="M259 399.7L225 407.6L266 424.6Z" fill="#12802d" stroke="#212121"></path><path d="M323 162.4L311 143.6L291 176.4Z" fill="#14842e" stroke="#212121"></path><path d="M291 176.4L233 158.4L258 202.3Z" fill="#046123" stroke="#212121"></path><path d="M358 111.6L382 150.4L404 142.6Z" fill="#14842e" stroke="#212121"></path><path d="M637 272.1L612 211.3L591 278.1Z" fill="#046123" stroke="#212121"></path><path d="M591 278.1L612 211.3L561 243.1Z" fill="#14842e" stroke="#212121"></path><path d="M557 122.6L485 123.6L530 164.4Z" fill="#0f7b2b" stroke="#212121"></path><path d="M591 278.1L583 321L649 315Z" fill="#046123" stroke="#212121"></path><path d="M258 202.3L240 231.3L257 259.1Z" fill="#096e27" stroke="#212121"></path><path d="M440 533.3L508 500.3L499 489.4Z" fill="#035d21" stroke="#212121"></path><path d="M499 489.4L508 500.3L529 476.4Z" fill="#0f7b2b" stroke="#212121"></path><path d="M604 474.4L580 420.6L542 449.6Z" fill="#14842e" stroke="#212121"></path><path d="M440 533.3L499 489.4L437 483.4Z" fill="#0f7b2b" stroke="#212121"></path><path d="M410 77.7L358 111.6L404 142.6Z" fill="#14842e" stroke="#212121"></path><path d="M641 341.9L583 321L583 390.7Z" fill="#14842e" stroke="#212121"></path><path d="M485 123.6L490 106.7L465 116.6Z" fill="#035d21" stroke="#212121"></path><path d="M465 116.6L410 77.7L404 142.6Z" fill="#14842e" stroke="#212121"></path><path d="M557 122.6L530 164.4L566 126.6Z" fill="#035d21" stroke="#212121"></path><path d="M240 231.3L229 249.1L257 259.1Z" fill="#076a26" stroke="#212121"></path><path d="M643 401.7L641 341.9L583 390.7Z" fill="#076a26" stroke="#212121"></path><path d="M308 501.3L353 507.3L318 468.4Z" fill="#096e27" stroke="#212121"></path><path d="M318 468.4L353 507.3L378 469.4Z" fill="#056624" stroke="#212121"></path><path d="M266 424.6L281 465.4L294 432.6Z" fill="#0b7228" stroke="#212121"></path><path d="M604 474.4L542 449.6L585 505.3Z" fill="#12802d" stroke="#212121"></path><path d="M580 420.6L609 433.6L583 390.7Z" fill="#0b7228" stroke="#212121"></path><path d="M641 341.9L649 315L583 321Z" fill="#025920" stroke="#212121"></path><path d="M566 126.6L530 164.4L576 186.4Z" fill="#14842e" stroke="#212121"></path><path d="M189 328.9L206 326.9L184 307Z" fill="#0f7b2b" stroke="#212121"></path><path d="M228 300L206 326.9L290 333.9Z" fill="#056624" stroke="#212121"></path><path d="M266 424.6L229 467.4L281 465.4Z" fill="#046123" stroke="#212121"></path><path d="M413 533.3L437 483.4L378 469.4Z" fill="#0f7b2b" stroke="#212121"></path><path d="M627 160.4L566 126.6L576 186.4Z" fill="#0d772a" stroke="#212121"></path><path d="M385 538.1L413 533.3L378 469.4Z" fill="#0b7228" stroke="#212121"></path><path d="M209 370.7L225 407.6L259 399.7Z" fill="#046123" stroke="#212121"></path><path d="M264 504.3L308 501.3L281 465.4Z" fill="#035d21" stroke="#212121"></path><path d="M281 465.4L308 501.3L318 468.4Z" fill="#0f7b2b" stroke="#212121"></path><path d="M353 507.3L385 538.1L378 469.4Z" fill="#096e27" stroke="#212121"></path><path d="M206 326.9L209 370.7L290 333.9Z" fill="#025920" stroke="#212121"></path><path d="M453 70.7L465 116.6L490 106.7Z" fill="#046123" stroke="#212121"></path><path d="M453 70.7L410 77.7L465 116.6Z" fill="#0f7b2b" stroke="#212121"></path><path d="M609 433.6L643 401.7L583 390.7Z" fill="#0b7228" stroke="#212121"></path><path d="M641 341.9L664 352.9L649 315Z" fill="#096e27" stroke="#212121"></path><path d="M670 287L661 265.1L637 272.1Z" fill="#0b7228" stroke="#212121"></path><path d="M637 272.1L667 225.3L612 211.3Z" fill="#056624" stroke="#212121"></path><path d="M612 211.3L627 160.4L576 186.4Z" fill="#025920" stroke="#212121"></path><path d="M670 287L637 272.1L649 315Z" fill="#076a26" stroke="#212121"></path><path d="M342 573.1L385 538.1L353 507.3Z" fill="#096e27" stroke="#212121"></path><path d="M413 533.3L451 559.1L440 533.3Z" fill="#0b7228" stroke="#212121"></path><path d="M410 77.7L345 86.7L358 111.6Z" fill="#035d21" stroke="#212121"></path><path d="M358 111.6L297 106.7L311 143.6Z" fill="#025920" stroke="#212121"></path><path d="M267 119.6L233 158.4L291 176.4Z" fill="#12802d" stroke="#212121"></path><path d="M643 401.7L664 352.9L641 341.9Z" fill="#12802d" stroke="#212121"></path><path d="M503 34.9L453 70.7L490 106.7Z" fill="#076a26" stroke="#212121"></path><path d="M410 77.7L393 26.9L345 86.7Z" fill="#025920" stroke="#212121"></path><path d="M530 77.7L490 106.7L557 122.6Z" fill="#056624" stroke="#212121"></path><path d="M664 352.9L670 287L649 315Z" fill="#056624" stroke="#212121"></path><path d="M544 525.3L529 476.4L508 500.3Z" fill="#076a26" stroke="#212121"></path><path d="M585 505.3L542 449.6L529 476.4Z" fill="#056624" stroke="#212121"></path><path d="M609 433.6L649 455.4L643 401.7Z" fill="#056624" stroke="#212121"></path><path d="M345 86.7L297 106.7L358 111.6Z" fill="#14842e" stroke="#212121"></path><path d="M258 202.3L233 158.4L240 231.3Z" fill="#035d21" stroke="#212121"></path><path d="M165 253.1L184 307L229 249.1Z" fill="#076a26" stroke="#212121"></path><path d="M184 307L206 326.9L228 300Z" fill="#046123" stroke="#212121"></path><path d="M206 326.9L189 328.9L209 370.7Z" fill="#12802d" stroke="#212121"></path><path d="M174 425.6L229 467.4L225 407.6Z" fill="#056624" stroke="#212121"></path><path d="M184 307L228 300L229 249.1Z" fill="#096e27" stroke="#212121"></path><path d="M451 559.1L514 536.1L440 533.3Z" fill="#0f7b2b" stroke="#212121"></path><path d="M440 533.3L514 536.1L508 500.3Z" fill="#0b7228" stroke="#212121"></path><path d="M667 225.3L637 272.1L661 265.1Z" fill="#046123" stroke="#212121"></path><path d="M661 190.4L627 160.4L612 211.3Z" fill="#035d21" stroke="#212121"></path><path d="M514 536.1L544 525.3L508 500.3Z" fill="#046123" stroke="#212121"></path><path d="M165 253.1L229 249.1L157 206.3Z" fill="#0d772a" stroke="#212121"></path><path d="M267 119.6L291 176.4L311 143.6Z" fill="#12802d" stroke="#212121"></path><path d="M297 106.7L267 119.6L311 143.6Z" fill="#12802d" stroke="#212121"></path><path d="M706 233.3L667 225.3L661 265.1Z" fill="#056624" stroke="#212121"></path><path d="M570 69.7L557 122.6L566 126.6Z" fill="#046123" stroke="#212121"></path><path d="M570 69.7L530 77.7L557 122.6Z" fill="#035d21" stroke="#212121"></path><path d="M694 444.6L671 378.7L643 401.7Z" fill="#0f7b2b" stroke="#212121"></path><path d="M643 401.7L671 378.7L664 352.9Z" fill="#035d21" stroke="#212121"></path><path d="M664 352.9L731 337.9L670 287Z" fill="#076a26" stroke="#212121"></path><path d="M544 525.3L585 505.3L529 476.4Z" fill="#0d772a" stroke="#212121"></path><path d="M604 474.4L649 455.4L609 433.6Z" fill="#025920" stroke="#212121"></path><path d="M438 600L451 559.1L421 600Z" fill="#0b7228" stroke="#212121"></path><path d="M514 536.1L523 565.1L544 525.3Z" fill="#12802d" stroke="#212121"></path><path d="M169 395.7L225 407.6L209 370.7Z" fill="#056624" stroke="#212121"></path><path d="M225 407.6L229 467.4L266 424.6Z" fill="#046123" stroke="#212121"></path><path d="M308 501.3L342 573.1L353 507.3Z" fill="#0d772a" stroke="#212121"></path><path d="M229 467.4L264 504.3L281 465.4Z" fill="#14842e" stroke="#212121"></path><path d="M421 600L451 559.1L413 533.3Z" fill="#0f7b2b" stroke="#212121"></path><path d="M667 225.3L661 190.4L612 211.3Z" fill="#076a26" stroke="#212121"></path><path d="M634 525.3L649 455.4L604 474.4Z" fill="#035d21" stroke="#212121"></path><path d="M661 138.6L632 134.6L627 160.4Z" fill="#0d772a" stroke="#212121"></path><path d="M627 160.4L632 134.6L566 126.6Z" fill="#0f7b2b" stroke="#212121"></path><path d="M269 87.7L267 119.6L297 106.7Z" fill="#0d772a" stroke="#212121"></path><path d="M269 87.7L245 115.6L267 119.6Z" fill="#096e27" stroke="#212121"></path><path d="M267 119.6L245 115.6L233 158.4Z" fill="#0d772a" stroke="#212121"></path><path d="M157 206.3L229 249.1L240 231.3Z" fill="#046123" stroke="#212121"></path><path d="M503 34.9L453 38.9L453 70.7Z" fill="#0f7b2b" stroke="#212121"></path><path d="M453 70.7L453 38.9L410 77.7Z" fill="#035d21" stroke="#212121"></path><path d="M337 30.9L269 87.7L297 106.7Z" fill="#025920" stroke="#212121"></path><path d="M191 154.4L240 231.3L233 158.4Z" fill="#025920" stroke="#212121"></path><path d="M148 378.7L209 370.7L189 328.9Z" fill="#0d772a" stroke="#212121"></path><path d="M148 378.7L169 395.7L209 370.7Z" fill="#096e27" stroke="#212121"></path><path d="M337 30.9L297 106.7L345 86.7Z" fill="#0f7b2b" stroke="#212121"></path><path d="M451 559.1L523 565.1L514 536.1Z" fill="#0b7228" stroke="#212121"></path><path d="M544 525.3L577 546.1L585 505.3Z" fill="#096e27" stroke="#212121"></path><path d="M585 505.3L634 525.3L604 474.4Z" fill="#056624" stroke="#212121"></path><path d="M610 68.7L570 69.7L566 126.6Z" fill="#035d21" stroke="#212121"></path><path d="M530 77.7L503 34.9L490 106.7Z" fill="#025920" stroke="#212121"></path><path d="M149 339.9L189 328.9L184 307Z" fill="#046123" stroke="#212121"></path><path d="M147 232.3L155 268.1L165 253.1Z" fill="#046123" stroke="#212121"></path><path d="M165 253.1L155 268.1L184 307Z" fill="#056624" stroke="#212121"></path><path d="M523 565.1L577 546.1L544 525.3Z" fill="#0d772a" stroke="#212121"></path><path d="M283 548.1L342 573.1L308 501.3Z" fill="#025920" stroke="#212121"></path><path d="M451 559.1L508 600L523 565.1Z" fill="#056624" stroke="#212121"></path><path d="M570 69.7L522 41.9L530 77.7Z" fill="#076a26" stroke="#212121"></path><path d="M715 441.6L707 364.7L671 378.7Z" fill="#0b7228" stroke="#212121"></path><path d="M671 378.7L707 364.7L664 352.9Z" fill="#0d772a" stroke="#212121"></path><path d="M670 287L706 233.3L661 265.1Z" fill="#14842e" stroke="#212121"></path><path d="M667 225.3L706 233.3L661 190.4Z" fill="#025920" stroke="#212121"></path><path d="M522 41.9L503 34.9L530 77.7Z" fill="#0b7228" stroke="#212121"></path><path d="M216 570.1L283 548.1L264 504.3Z" fill="#096e27" stroke="#212121"></path><path d="M264 504.3L283 548.1L308 501.3Z" fill="#14842e" stroke="#212121"></path><path d="M205 494.3L264 504.3L229 467.4Z" fill="#056624" stroke="#212121"></path><path d="M169 395.7L174 425.6L225 407.6Z" fill="#046123" stroke="#212121"></path><path d="M397 0L393 26.9L453 38.9Z" fill="#056624" stroke="#212121"></path><path d="M453 38.9L393 26.9L410 77.7Z" fill="#0f7b2b" stroke="#212121"></path><path d="M113 312L149 339.9L184 307Z" fill="#076a26" stroke="#212121"></path><path d="M169 395.7L150 440.6L174 425.6Z" fill="#0b7228" stroke="#212121"></path><path d="M199 138.6L233 158.4L245 115.6Z" fill="#12802d" stroke="#212121"></path><path d="M199 138.6L191 154.4L233 158.4Z" fill="#025920" stroke="#212121"></path><path d="M727 240.1L706 233.3L670 287Z" fill="#096e27" stroke="#212121"></path><path d="M661 190.4L661 138.6L627 160.4Z" fill="#12802d" stroke="#212121"></path><path d="M720 183.4L661 138.6L661 190.4Z" fill="#14842e" stroke="#212121"></path><path d="M632 134.6L610 68.7L566 126.6Z" fill="#046123" stroke="#212121"></path><path d="M207 93.7L199 138.6L245 115.6Z" fill="#0f7b2b" stroke="#212121"></path><path d="M149 339.9L148 378.7L189 328.9Z" fill="#0f7b2b" stroke="#212121"></path><path d="M142 149.4L157 206.3L191 154.4Z" fill="#056624" stroke="#212121"></path><path d="M191 154.4L157 206.3L240 231.3Z" fill="#046123" stroke="#212121"></path><path d="M155 268.1L113 312L184 307Z" fill="#056624" stroke="#212121"></path><path d="M393 26.9L337 30.9L345 86.7Z" fill="#046123" stroke="#212121"></path><path d="M269 87.7L207 93.7L245 115.6Z" fill="#056624" stroke="#212121"></path><path d="M421 600L413 533.3L385 538.1Z" fill="#0d772a" stroke="#212121"></path><path d="M523 565.1L569 600L577 546.1Z" fill="#12802d" stroke="#212121"></path><path d="M348 600L421 600L385 538.1Z" fill="#0b7228" stroke="#212121"></path><path d="M191 491.3L205 494.3L229 467.4Z" fill="#0b7228" stroke="#212121"></path><path d="M191 491.3L229 467.4L170 477.4Z" fill="#0b7228" stroke="#212121"></path><path d="M157 206.3L147 232.3L165 253.1Z" fill="#0f7b2b" stroke="#212121"></path><path d="M149 339.9L108 359.9L148 378.7Z" fill="#035d21" stroke="#212121"></path><path d="M683 471.4L694 444.6L649 455.4Z" fill="#0d772a" stroke="#212121"></path><path d="M649 455.4L694 444.6L643 401.7Z" fill="#046123" stroke="#212121"></path><path d="M634 543.1L634 525.3L577 546.1Z" fill="#0b7228" stroke="#212121"></path><path d="M577 546.1L634 525.3L585 505.3Z" fill="#096e27" stroke="#212121"></path><path d="M662 82.7L610 68.7L632 134.6Z" fill="#025920" stroke="#212121"></path><path d="M570 69.7L573 41.9L522 41.9Z" fill="#025920" stroke="#212121"></path><path d="M535 0L496 0L503 34.9Z" fill="#076a26" stroke="#212121"></path><path d="M283 548.1L302 577.1L342 573.1Z" fill="#056624" stroke="#212121"></path><path d="M342 573.1L348 600L385 538.1Z" fill="#056624" stroke="#212121"></path><path d="M311 600L302 577.1L286 600Z" fill="#0d772a" stroke="#212121"></path><path d="M393 26.9L338 22.9L337 30.9Z" fill="#0b7228" stroke="#212121"></path><path d="M247 27.9L241 49.9L269 87.7Z" fill="#0f7b2b" stroke="#212121"></path><path d="M675 509.3L683 471.4L649 455.4Z" fill="#0f7b2b" stroke="#212121"></path><path d="M610 68.7L573 41.9L570 69.7Z" fill="#046123" stroke="#212121"></path><path d="M752 352.9L731 337.9L707 364.7Z" fill="#025920" stroke="#212121"></path><path d="M707 364.7L731 337.9L664 352.9Z" fill="#096e27" stroke="#212121"></path><path d="M170 477.4L229 467.4L174 425.6Z" fill="#025920" stroke="#212121"></path><path d="M216 570.1L286 600L283 548.1Z" fill="#056624" stroke="#212121"></path><path d="M438 600L508 600L451 559.1Z" fill="#076a26" stroke="#212121"></path><path d="M739 315L727 240.1L670 287Z" fill="#0f7b2b" stroke="#212121"></path><path d="M706 233.3L720 183.4L661 190.4Z" fill="#14842e" stroke="#212121"></path><path d="M311 600L348 600L342 573.1Z" fill="#12802d" stroke="#212121"></path><path d="M752 352.9L739 315L731 337.9Z" fill="#096e27" stroke="#212121"></path><path d="M731 337.9L739 315L670 287Z" fill="#0d772a" stroke="#212121"></path><path d="M496 0L453 38.9L503 34.9Z" fill="#0d772a" stroke="#212121"></path><path d="M496 0L455 0L453 38.9Z" fill="#0d772a" stroke="#212121"></path><path d="M393 26.9L352 0L338 22.9Z" fill="#056624" stroke="#212121"></path><path d="M610 68.7L614 58.9L573 41.9Z" fill="#035d21" stroke="#212121"></path><path d="M662 82.7L614 58.9L610 68.7Z" fill="#0d772a" stroke="#212121"></path><path d="M662 82.7L632 134.6L661 138.6Z" fill="#0f7b2b" stroke="#212121"></path><path d="M455 0L397 0L453 38.9Z" fill="#14842e" stroke="#212121"></path><path d="M241 49.9L207 93.7L269 87.7Z" fill="#025920" stroke="#212121"></path><path d="M199 138.6L142 149.4L191 154.4Z" fill="#046123" stroke="#212121"></path><path d="M508 600L534 600L523 565.1Z" fill="#14842e" stroke="#212121"></path><path d="M148 378.7L150 440.6L169 395.7Z" fill="#14842e" stroke="#212121"></path><path d="M607 600L634 543.1L577 546.1Z" fill="#0d772a" stroke="#212121"></path><path d="M634 525.3L675 509.3L649 455.4Z" fill="#076a26" stroke="#212121"></path><path d="M150 440.6L170 477.4L174 425.6Z" fill="#0f7b2b" stroke="#212121"></path><path d="M286 600L302 577.1L283 548.1Z" fill="#0d772a" stroke="#212121"></path><path d="M711 466.4L715 441.6L694 444.6Z" fill="#025920" stroke="#212121"></path><path d="M694 444.6L715 441.6L671 378.7Z" fill="#076a26" stroke="#212121"></path><path d="M711 466.4L694 444.6L683 471.4Z" fill="#14842e" stroke="#212121"></path><path d="M535 0L522 41.9L573 41.9Z" fill="#046123" stroke="#212121"></path><path d="M535 0L503 34.9L522 41.9Z" fill="#12802d" stroke="#212121"></path><path d="M747 232.3L720 183.4L727 240.1Z" fill="#14842e" stroke="#212121"></path><path d="M727 240.1L720 183.4L706 233.3Z" fill="#0f7b2b" stroke="#212121"></path><path d="M264 504.3L205 494.3L216 570.1Z" fill="#096e27" stroke="#212121"></path><path d="M302 577.1L311 600L342 573.1Z" fill="#056624" stroke="#212121"></path><path d="M634 543.1L675 509.3L634 525.3Z" fill="#035d21" stroke="#212121"></path><path d="M397 0L352 0L393 26.9Z" fill="#14842e" stroke="#212121"></path><path d="M247 27.9L269 87.7L337 30.9Z" fill="#025920" stroke="#212121"></path><path d="M91 295L113 312L155 268.1Z" fill="#056624" stroke="#212121"></path><path d="M148 378.7L97 402.7L150 440.6Z" fill="#046123" stroke="#212121"></path><path d="M91 295L155 268.1L97 221.3Z" fill="#0f7b2b" stroke="#212121"></path><path d="M311 0L337 30.9L338 22.9Z" fill="#0f7b2b" stroke="#212121"></path><path d="M729 493.3L711 466.4L683 471.4Z" fill="#14842e" stroke="#212121"></path><path d="M787 400.7L752 352.9L707 364.7Z" fill="#025920" stroke="#212121"></path><path d="M720 99.7L662 82.7L661 138.6Z" fill="#0f7b2b" stroke="#212121"></path><path d="M569 0L535 0L573 41.9Z" fill="#0d772a" stroke="#212121"></path><path d="M534 600L569 600L523 565.1Z" fill="#056624" stroke="#212121"></path><path d="M634 543.1L681 558.1L675 509.3Z" fill="#056624" stroke="#212121"></path><path d="M787 400.7L707 364.7L715 441.6Z" fill="#076a26" stroke="#212121"></path><path d="M764 243.1L747 232.3L727 240.1Z" fill="#0b7228" stroke="#212121"></path><path d="M569 0L573 41.9L634 0Z" fill="#12802d" stroke="#212121"></path><path d="M762 305L727 240.1L739 315Z" fill="#0d772a" stroke="#212121"></path><path d="M216 570.1L205 494.3L181 539.1Z" fill="#056624" stroke="#212121"></path><path d="M113 312L108 359.9L149 339.9Z" fill="#035d21" stroke="#212121"></path><path d="M123 122.6L142 149.4L199 138.6Z" fill="#0b7228" stroke="#212121"></path><path d="M157 206.3L97 221.3L147 232.3Z" fill="#046123" stroke="#212121"></path><path d="M123 122.6L199 138.6L207 93.7Z" fill="#0b7228" stroke="#212121"></path><path d="M352 0L311 0L338 22.9Z" fill="#025920" stroke="#212121"></path><path d="M752 352.9L762 305L739 315Z" fill="#056624" stroke="#212121"></path><path d="M224 0L197 68.7L241 49.9Z" fill="#14842e" stroke="#212121"></path><path d="M241 49.9L197 68.7L207 93.7Z" fill="#14842e" stroke="#212121"></path><path d="M311 0L247 27.9L337 30.9Z" fill="#0b7228" stroke="#212121"></path><path d="M634 0L573 41.9L614 58.9Z" fill="#12802d" stroke="#212121"></path><path d="M181 539.1L191 491.3L136 527.3Z" fill="#035d21" stroke="#212121"></path><path d="M181 539.1L205 494.3L191 491.3Z" fill="#056624" stroke="#212121"></path><path d="M191 491.3L170 477.4L136 527.3Z" fill="#046123" stroke="#212121"></path><path d="M762 305L764 243.1L727 240.1Z" fill="#0b7228" stroke="#212121"></path><path d="M775 176.4L746 131.6L720 183.4Z" fill="#025920" stroke="#212121"></path><path d="M720 183.4L722 127.6L661 138.6Z" fill="#076a26" stroke="#212121"></path><path d="M97 221.3L155 268.1L147 232.3Z" fill="#0f7b2b" stroke="#212121"></path><path d="M113 312L91 295L108 359.9Z" fill="#076a26" stroke="#212121"></path><path d="M116 455.4L170 477.4L150 440.6Z" fill="#025920" stroke="#212121"></path><path d="M569 600L607 600L577 546.1Z" fill="#14842e" stroke="#212121"></path><path d="M675 509.3L729 493.3L683 471.4Z" fill="#0d772a" stroke="#212121"></path><path d="M746 131.6L722 127.6L720 183.4Z" fill="#056624" stroke="#212121"></path><path d="M662 82.7L654 30.9L614 58.9Z" fill="#046123" stroke="#212121"></path><path d="M142 149.4L97 221.3L157 206.3Z" fill="#14842e" stroke="#212121"></path><path d="M60 392.7L97 402.7L108 359.9Z" fill="#0d772a" stroke="#212121"></path><path d="M108 359.9L97 402.7L148 378.7Z" fill="#076a26" stroke="#212121"></path><path d="M311 0L269 0L247 27.9Z" fill="#096e27" stroke="#212121"></path><path d="M247 27.9L224 0L241 49.9Z" fill="#12802d" stroke="#212121"></path><path d="M92 431.6L116 455.4L150 440.6Z" fill="#0f7b2b" stroke="#212121"></path><path d="M700 559.1L729 493.3L675 509.3Z" fill="#12802d" stroke="#212121"></path><path d="M711 466.4L763 485.4L715 441.6Z" fill="#035d21" stroke="#212121"></path><path d="M819 281L796 265.1L762 305Z" fill="#096e27" stroke="#212121"></path><path d="M654 600L681 558.1L634 543.1Z" fill="#0b7228" stroke="#212121"></path><path d="M740 32.9L654 30.9L662 82.7Z" fill="#0d772a" stroke="#212121"></path><path d="M742 105.7L720 99.7L722 127.6Z" fill="#12802d" stroke="#212121"></path><path d="M722 127.6L720 99.7L661 138.6Z" fill="#0b7228" stroke="#212121"></path><path d="M117 107.7L123 122.6L207 93.7Z" fill="#12802d" stroke="#212121"></path><path d="M142 149.4L72 158.4L97 221.3Z" fill="#046123" stroke="#212121"></path><path d="M117 107.7L207 93.7L197 68.7Z" fill="#096e27" stroke="#212121"></path><path d="M97 402.7L92 431.6L150 440.6Z" fill="#056624" stroke="#212121"></path><path d="M116 455.4L136 527.3L170 477.4Z" fill="#076a26" stroke="#212121"></path><path d="M60 392.7L92 431.6L97 402.7Z" fill="#096e27" stroke="#212121"></path><path d="M775 176.4L720 183.4L747 232.3Z" fill="#096e27" stroke="#212121"></path><path d="M190 600L216 570.1L181 539.1Z" fill="#0d772a" stroke="#212121"></path><path d="M190 600L216 600L216 570.1Z" fill="#0f7b2b" stroke="#212121"></path><path d="M216 570.1L216 600L286 600Z" fill="#056624" stroke="#212121"></path><path d="M97 221.3L74 237.1L91 295Z" fill="#12802d" stroke="#212121"></path><path d="M29 344.9L60 392.7L108 359.9Z" fill="#035d21" stroke="#212121"></path><path d="M66 235.3L74 237.1L97 221.3Z" fill="#0f7b2b" stroke="#212121"></path><path d="M74 237.1L66 279L91 295Z" fill="#0d772a" stroke="#212121"></path><path d="M68 516.3L136 527.3L116 455.4Z" fill="#0b7228" stroke="#212121"></path><path d="M762 305L796 265.1L764 243.1Z" fill="#046123" stroke="#212121"></path><path d="M764 243.1L775 176.4L747 232.3Z" fill="#12802d" stroke="#212121"></path><path d="M816 352.9L762 305L752 352.9Z" fill="#046123" stroke="#212121"></path><path d="M607 600L654 600L634 543.1Z" fill="#12802d" stroke="#212121"></path><path d="M681 558.1L700 559.1L675 509.3Z" fill="#0d772a" stroke="#212121"></path><path d="M780 432.6L787 400.7L715 441.6Z" fill="#035d21" stroke="#212121"></path><path d="M811 231.3L775 176.4L764 243.1Z" fill="#0f7b2b" stroke="#212121"></path><path d="M654 600L700 559.1L681 558.1Z" fill="#0b7228" stroke="#212121"></path><path d="M763 485.4L780 432.6L715 441.6Z" fill="#14842e" stroke="#212121"></path><path d="M685 0L634 0L654 30.9Z" fill="#0b7228" stroke="#212121"></path><path d="M654 30.9L634 0L614 58.9Z" fill="#076a26" stroke="#212121"></path><path d="M269 0L224 0L247 27.9Z" fill="#035d21" stroke="#212121"></path><path d="M763 485.4L711 466.4L729 493.3Z" fill="#14842e" stroke="#212121"></path><path d="M746 131.6L742 105.7L722 127.6Z" fill="#096e27" stroke="#212121"></path><path d="M740 32.9L685 0L654 30.9Z" fill="#0f7b2b" stroke="#212121"></path><path d="M800 91.7L742 105.7L746 131.6Z" fill="#12802d" stroke="#212121"></path><path d="M72 158.4L66 235.3L97 221.3Z" fill="#096e27" stroke="#212121"></path><path d="M74 237.1L59 252.1L66 279Z" fill="#14842e" stroke="#212121"></path><path d="M132 39.9L117 107.7L197 68.7Z" fill="#12802d" stroke="#212121"></path><path d="M123 122.6L96 133.6L142 149.4Z" fill="#0b7228" stroke="#212121"></path><path d="M829 409.6L796 381.7L787 400.7Z" fill="#076a26" stroke="#212121"></path><path d="M787 400.7L796 381.7L752 352.9Z" fill="#0f7b2b" stroke="#212121"></path><path d="M66 279L59 252.1L0 261.1Z" fill="#0b7228" stroke="#212121"></path><path d="M66 235.3L59 252.1L74 237.1Z" fill="#14842e" stroke="#212121"></path><path d="M29 344.9L108 359.9L91 295Z" fill="#14842e" stroke="#212121"></path><path d="M791 507.3L763 485.4L780 532.3Z" fill="#046123" stroke="#212121"></path><path d="M117 107.7L96 133.6L123 122.6Z" fill="#12802d" stroke="#212121"></path><path d="M136 527.3L143 552.1L181 539.1Z" fill="#0f7b2b" stroke="#212121"></path><path d="M82 549.1L143 552.1L136 527.3Z" fill="#046123" stroke="#212121"></path><path d="M143 552.1L190 600L181 539.1Z" fill="#0d772a" stroke="#212121"></path><path d="M29 344.9L91 295L66 279Z" fill="#025920" stroke="#212121"></path><path d="M92 431.6L69 474.4L116 455.4Z" fill="#0f7b2b" stroke="#212121"></path><path d="M843 252.1L811 231.3L796 265.1Z" fill="#056624" stroke="#212121"></path><path d="M796 265.1L811 231.3L764 243.1Z" fill="#076a26" stroke="#212121"></path><path d="M777 33.9L740 32.9L742 105.7Z" fill="#056624" stroke="#212121"></path><path d="M829 409.6L816 352.9L796 381.7Z" fill="#046123" stroke="#212121"></path><path d="M796 381.7L816 352.9L752 352.9Z" fill="#035d21" stroke="#212121"></path><path d="M829 409.6L787 400.7L780 432.6Z" fill="#035d21" stroke="#212121"></path><path d="M59 156.4L72 158.4L62 122.6Z" fill="#0d772a" stroke="#212121"></path><path d="M96 133.6L72 158.4L142 149.4Z" fill="#0f7b2b" stroke="#212121"></path><path d="M190 0L162 26.9L197 68.7Z" fill="#14842e" stroke="#212121"></path><path d="M73 95.7L62 122.6L96 133.6Z" fill="#046123" stroke="#212121"></path><path d="M838 310L819 281L762 305Z" fill="#046123" stroke="#212121"></path><path d="M224 0L190 0L197 68.7Z" fill="#025920" stroke="#212121"></path><path d="M23 434.6L69 474.4L92 431.6Z" fill="#14842e" stroke="#212121"></path><path d="M740 32.9L662 82.7L720 99.7Z" fill="#076a26" stroke="#212121"></path><path d="M740 32.9L720 99.7L742 105.7Z" fill="#046123" stroke="#212121"></path><path d="M141 0L132 39.9L162 26.9Z" fill="#056624" stroke="#212121"></path><path d="M162 26.9L132 39.9L197 68.7Z" fill="#0f7b2b" stroke="#212121"></path><path d="M62 122.6L72 158.4L96 133.6Z" fill="#025920" stroke="#212121"></path><path d="M72 158.4L59 156.4L66 235.3Z" fill="#12802d" stroke="#212121"></path><path d="M0 293L29 344.9L66 279Z" fill="#0f7b2b" stroke="#212121"></path><path d="M60 392.7L23 434.6L92 431.6Z" fill="#025920" stroke="#212121"></path><path d="M0 293L66 279L0 261.1Z" fill="#035d21" stroke="#212121"></path><path d="M103 600L150 600L143 552.1Z" fill="#14842e" stroke="#212121"></path><path d="M143 552.1L150 600L190 600Z" fill="#025920" stroke="#212121"></path><path d="M843 349.9L838 310L816 352.9Z" fill="#025920" stroke="#212121"></path><path d="M816 352.9L838 310L762 305Z" fill="#046123" stroke="#212121"></path><path d="M819 281L843 252.1L796 265.1Z" fill="#025920" stroke="#212121"></path><path d="M850 465.4L829 409.6L780 432.6Z" fill="#0d772a" stroke="#212121"></path><path d="M814 489.4L780 432.6L763 485.4Z" fill="#076a26" stroke="#212121"></path><path d="M780 532.3L729 493.3L700 559.1Z" fill="#0b7228" stroke="#212121"></path><path d="M780 532.3L763 485.4L729 493.3Z" fill="#035d21" stroke="#212121"></path><path d="M73 95.7L96 133.6L117 107.7Z" fill="#056624" stroke="#212121"></path><path d="M0 261.1L59 252.1L0 224.3Z" fill="#096e27" stroke="#212121"></path><path d="M820 125.6L746 131.6L775 176.4Z" fill="#076a26" stroke="#212121"></path><path d="M829 409.6L843 349.9L816 352.9Z" fill="#096e27" stroke="#212121"></path><path d="M782 549.1L780 532.3L700 559.1Z" fill="#096e27" stroke="#212121"></path><path d="M93 55.9L73 95.7L117 107.7Z" fill="#076a26" stroke="#212121"></path><path d="M838 310L843 252.1L819 281Z" fill="#0b7228" stroke="#212121"></path><path d="M811 231.3L825 155.4L775 176.4Z" fill="#12802d" stroke="#212121"></path><path d="M873 222.3L843 252.1L900 271.1Z" fill="#035d21" stroke="#212121"></path><path d="M28 495.3L68 516.3L69 474.4Z" fill="#076a26" stroke="#212121"></path><path d="M69 474.4L68 516.3L116 455.4Z" fill="#096e27" stroke="#212121"></path><path d="M132 39.9L93 55.9L117 107.7Z" fill="#14842e" stroke="#212121"></path><path d="M92 0L93 55.9L132 39.9Z" fill="#056624" stroke="#212121"></path><path d="M740 32.9L719 0L685 0Z" fill="#0f7b2b" stroke="#212121"></path><path d="M849 147.6L825 155.4L873 222.3Z" fill="#14842e" stroke="#212121"></path><path d="M740 32.9L785 0L719 0Z" fill="#096e27" stroke="#212121"></path><path d="M190 0L141 0L162 26.9Z" fill="#14842e" stroke="#212121"></path><path d="M849 504.3L814 489.4L791 507.3Z" fill="#056624" stroke="#212121"></path><path d="M791 507.3L814 489.4L763 485.4Z" fill="#0b7228" stroke="#212121"></path><path d="M829 409.6L867 368.7L843 349.9Z" fill="#14842e" stroke="#212121"></path><path d="M68 516.3L82 549.1L136 527.3Z" fill="#12802d" stroke="#212121"></path><path d="M742 600L782 549.1L700 559.1Z" fill="#0f7b2b" stroke="#212121"></path><path d="M780 532.3L841 549.1L791 507.3Z" fill="#14842e" stroke="#212121"></path><path d="M654 600L742 600L700 559.1Z" fill="#056624" stroke="#212121"></path><path d="M0 390.7L23 434.6L60 392.7Z" fill="#14842e" stroke="#212121"></path><path d="M68 516.3L35 556.1L82 549.1Z" fill="#0d772a" stroke="#212121"></path><path d="M820 125.6L800 91.7L746 131.6Z" fill="#14842e" stroke="#212121"></path><path d="M23 434.6L35 473.4L69 474.4Z" fill="#12802d" stroke="#212121"></path><path d="M849 147.6L820 125.6L825 155.4Z" fill="#0d772a" stroke="#212121"></path><path d="M825 155.4L820 125.6L775 176.4Z" fill="#0b7228" stroke="#212121"></path><path d="M59 252.1L66 235.3L0 224.3Z" fill="#076a26" stroke="#212121"></path><path d="M29 344.9L0 390.7L60 392.7Z" fill="#0f7b2b" stroke="#212121"></path><path d="M0 224.3L66 235.3L59 156.4Z" fill="#056624" stroke="#212121"></path><path d="M0 224.3L59 156.4L0 167.4Z" fill="#035d21" stroke="#212121"></path><path d="M0 293L0 362.9L29 344.9Z" fill="#12802d" stroke="#212121"></path><path d="M0 493.4L28 495.3L35 473.4Z" fill="#12802d" stroke="#212121"></path><path d="M66 59.9L58 81.7L73 95.7Z" fill="#076a26" stroke="#212121"></path><path d="M73 95.7L58 81.7L62 122.6Z" fill="#0f7b2b" stroke="#212121"></path><path d="M66 59.9L73 95.7L93 55.9Z" fill="#14842e" stroke="#212121"></path><path d="M0 362.9L0 390.7L29 344.9Z" fill="#0f7b2b" stroke="#212121"></path><path d="M0 167.4L59 156.4L0 106.6Z" fill="#096e27" stroke="#212121"></path><path d="M82 549.1L103 600L143 552.1Z" fill="#12802d" stroke="#212121"></path><path d="M61 600L103 600L82 549.1Z" fill="#076a26" stroke="#212121"></path><path d="M862 433.6L867 368.7L829 409.6Z" fill="#14842e" stroke="#212121"></path><path d="M900 329.9L900 309L838 310Z" fill="#14842e" stroke="#212121"></path><path d="M873 222.3L825 155.4L811 231.3Z" fill="#12802d" stroke="#212121"></path><path d="M92 0L66 59.9L93 55.9Z" fill="#096e27" stroke="#212121"></path><path d="M0 106.6L59 156.4L62 122.6Z" fill="#0d772a" stroke="#212121"></path><path d="M829 61.9L777 33.9L800 91.7Z" fill="#0b7228" stroke="#212121"></path><path d="M800 91.7L777 33.9L742 105.7Z" fill="#046123" stroke="#212121"></path><path d="M0 440.6L35 473.4L23 434.6Z" fill="#0f7b2b" stroke="#212121"></path><path d="M35 473.4L28 495.3L69 474.4Z" fill="#025920" stroke="#212121"></path><path d="M873 222.3L811 231.3L843 252.1Z" fill="#076a26" stroke="#212121"></path><path d="M820 125.6L829 61.9L800 91.7Z" fill="#14842e" stroke="#212121"></path><path d="M849 504.3L850 465.4L814 489.4Z" fill="#096e27" stroke="#212121"></path><path d="M814 489.4L850 465.4L780 432.6Z" fill="#035d21" stroke="#212121"></path><path d="M841 549.1L780 532.3L782 549.1Z" fill="#025920" stroke="#212121"></path><path d="M850 465.4L862 433.6L829 409.6Z" fill="#0d772a" stroke="#212121"></path><path d="M900 271.1L843 252.1L838 310Z" fill="#056624" stroke="#212121"></path><path d="M0 390.7L0 440.6L23 434.6Z" fill="#0d772a" stroke="#212121"></path><path d="M0 106.6L62 122.6L58 81.7Z" fill="#025920" stroke="#212121"></path><path d="M141 0L92 0L132 39.9Z" fill="#056624" stroke="#212121"></path><path d="M0 77.7L0 106.6L58 81.7Z" fill="#025920" stroke="#212121"></path><path d="M796 600L805 571.1L782 549.1Z" fill="#0d772a" stroke="#212121"></path><path d="M841 549.1L849 504.3L791 507.3Z" fill="#14842e" stroke="#212121"></path><path d="M900 426.6L900 398.7L862 433.6Z" fill="#12802d" stroke="#212121"></path><path d="M0 509.3L35 556.1L28 495.3Z" fill="#14842e" stroke="#212121"></path><path d="M28 495.3L35 556.1L68 516.3Z" fill="#076a26" stroke="#212121"></path><path d="M742 600L796 600L782 549.1Z" fill="#14842e" stroke="#212121"></path><path d="M805 571.1L841 549.1L782 549.1Z" fill="#076a26" stroke="#212121"></path><path d="M874 77.7L820 125.6L849 147.6Z" fill="#035d21" stroke="#212121"></path><path d="M874 77.7L829 61.9L820 125.6Z" fill="#035d21" stroke="#212121"></path><path d="M777 33.9L785 0L740 32.9Z" fill="#0f7b2b" stroke="#212121"></path><path d="M873 222.3L873 153.4L849 147.6Z" fill="#0f7b2b" stroke="#212121"></path><path d="M811 0L785 0L777 33.9Z" fill="#0f7b2b" stroke="#212121"></path><path d="M0 440.6L0 493.4L35 473.4Z" fill="#14842e" stroke="#212121"></path><path d="M900 329.9L843 349.9L867 368.7Z" fill="#035d21" stroke="#212121"></path><path d="M900 329.9L838 310L843 349.9Z" fill="#025920" stroke="#212121"></path><path d="M873 222.3L900 183.4L873 153.4Z" fill="#046123" stroke="#212121"></path><path d="M900 329.9L867 368.7L900 398.7Z" fill="#12802d" stroke="#212121"></path><path d="M900 398.7L867 368.7L862 433.6Z" fill="#0b7228" stroke="#212121"></path><path d="M900 309L900 271.1L838 310Z" fill="#056624" stroke="#212121"></path><path d="M35 556.1L61 600L82 549.1Z" fill="#056624" stroke="#212121"></path><path d="M900 271.1L900 234.3L873 222.3Z" fill="#14842e" stroke="#212121"></path><path d="M0 77.7L58 81.7L66 59.9Z" fill="#0f7b2b" stroke="#212121"></path><path d="M0 493.4L0 509.3L28 495.3Z" fill="#0f7b2b" stroke="#212121"></path><path d="M35 556.1L0 600L61 600Z" fill="#0b7228" stroke="#212121"></path><path d="M857 600L841 549.1L805 571.1Z" fill="#0b7228" stroke="#212121"></path><path d="M900 426.6L862 433.6L900 488.4Z" fill="#0b7228" stroke="#212121"></path><path d="M862 433.6L850 465.4L900 488.4Z" fill="#14842e" stroke="#212121"></path><path d="M900 488.4L850 465.4L849 504.3Z" fill="#096e27" stroke="#212121"></path><path d="M900 234.3L900 183.4L873 222.3Z" fill="#0f7b2b" stroke="#212121"></path><path d="M874 77.7L839 28.9L829 61.9Z" fill="#0f7b2b" stroke="#212121"></path><path d="M0 32.9L0 77.7L66 59.9Z" fill="#0d772a" stroke="#212121"></path><path d="M839 28.9L811 0L777 33.9Z" fill="#035d21" stroke="#212121"></path><path d="M839 28.9L777 33.9L829 61.9Z" fill="#0f7b2b" stroke="#212121"></path><path d="M92 0L50 0L66 59.9Z" fill="#056624" stroke="#212121"></path><path d="M874 77.7L849 147.6L900 128.6Z" fill="#076a26" stroke="#212121"></path><path d="M900 128.6L849 147.6L873 153.4Z" fill="#14842e" stroke="#212121"></path><path d="M0 509.3L0 561.1L35 556.1Z" fill="#0d772a" stroke="#212121"></path><path d="M900 183.4L900 128.6L873 153.4Z" fill="#14842e" stroke="#212121"></path><path d="M900 493.3L849 504.3L900 571.1Z" fill="#046123" stroke="#212121"></path><path d="M900 493.3L900 488.4L849 504.3Z" fill="#0d772a" stroke="#212121"></path><path d="M900 571.1L849 504.3L841 549.1Z" fill="#025920" stroke="#212121"></path><path d="M50 0L0 32.9L66 59.9Z" fill="#0d772a" stroke="#212121"></path><path d="M796 600L857 600L805 571.1Z" fill="#0d772a" stroke="#212121"></path><path d="M0 561.1L0 600L35 556.1Z" fill="#035d21" stroke="#212121"></path><path d="M900 38.9L839 28.9L874 77.7Z" fill="#076a26" stroke="#212121"></path><path d="M900 38.9L851 0L839 28.9Z" fill="#046123" stroke="#212121"></path><path d="M839 28.9L851 0L811 0Z" fill="#035d21" stroke="#212121"></path><path d="M900 128.6L900 77.7L874 77.7Z" fill="#046123" stroke="#212121"></path><path d="M50 0L0 0L0 32.9Z" fill="#12802d" stroke="#212121"></path><path d="M857 600L900 571.1L841 549.1Z" fill="#046123" stroke="#212121"></path><path d="M900 77.7L900 38.9L874 77.7Z" fill="#0b7228" stroke="#212121"></path><path d="M857 600L900 600L900 571.1Z" fill="#0b7228" stroke="#212121"></path><path d="M900 38.9L900 0L851 0Z" fill="#035d21" stroke="#212121"></path></g></svg>